/* XPM */
static char *c71293b0dd5440e3a6d8c6d1c4d201807WhaeA2K4OtwYywo[] = {
/* columns rows colors chars-per-pixel */
"64 64 173 2 ",
"   c None",
".  c #000000",
"X  c #0A0506",
"o  c #0D0708",
"O  c #0E0909",
"+  c #120709",
"@  c #130B0C",
"#  c #1A0C0E",
"$  c #1C0F11",
"%  c #1B1213",
"&  c #220E11",
"*  c #231416",
"=  c #2B1317",
"-  c #241718",
";  c #2D1619",
":  c #24191A",
">  c #2B1A1C",
",  c #38171D",
"<  c #32191D",
"1  c #3B181E",
"2  c #2C1E20",
"3  c #381D21",
"4  c #361B20",
"5  c #352224",
"6  c #382225",
"7  c #3C292B",
"8  c #3D2528",
"9  c #451C23",
"0  c #4A1E26",
"q  c #412126",
"w  c #4D2027",
"e  c #4B242B",
"r  c #43282C",
"t  c #462329",
"y  c #52232B",
"u  c #5A252E",
"i  c #51292F",
"p  c #5F2730",
"a  c #532A31",
"s  c #5E2F37",
"d  c #493134",
"f  c #4D3438",
"g  c #5E3037",
"h  c #523539",
"j  c #5D3239",
"k  c #553A3D",
"l  c #5E393E",
"z  c #662A34",
"x  c #6A2C36",
"c  c #682F39",
"v  c #64323B",
"b  c #6A363E",
"n  c #603A3F",
"m  c #7B333F",
"M  c #583C40",
"N  c #6E3740",
"B  c #643C42",
"V  c #693F45",
"C  c #733A44",
"Z  c #793D47",
"A  c #7F3441",
"S  c #5E5758",
"D  c #6C4147",
"F  c #6E4249",
"G  c #6C494E",
"H  c #78484E",
"J  c #6F4C50",
"K  c #7D4B52",
"L  c #785257",
"P  c #7C5459",
"I  c #6E6D6D",
"U  c #833643",
"Y  c #873845",
"T  c #893946",
"R  c #943D4B",
"E  c #993F4E",
"W  c #85434E",
"Q  c #9B404F",
"!  c #8F4854",
"~  c #8D4753",
"^  c #9D4050",
"/  c #944B57",
"(  c #9B4E5B",
")  c #855057",
"_  c #8B535B",
"`  c #9F505D",
"'  c #A44354",
"]  c #AE4758",
"[  c #B34A5C",
"{  c #B94C5E",
"}  c #A1525F",
"|  c #895E63",
" . c #865B61",
".. c #965A63",
"X. c #AE5866",
"o. c #B95D6D",
"O. c #8E6167",
"+. c #92636A",
"@. c #9B626B",
"#. c #AC6771",
"$. c #AF6973",
"%. c #A16D74",
"&. c #BF6170",
"*. c #B16A74",
"=. c #B76E78",
"-. c #B96F79",
";. c #A67178",
":. c #AE767E",
">. c #BE737D",
",. c #C65265",
"<. c #CE5569",
"1. c #C05F6F",
"2. c #CB576A",
"3. c #D3566B",
"4. c #D6586D",
"5. c #D9596E",
"6. c #DB5B70",
"7. c #C46373",
"8. c #CA6676",
"9. c #CD6778",
"0. c #DA6276",
"q. c #DB6679",
"w. c #D36B7C",
"e. c #DA6C7E",
"r. c #B47A81",
"t. c #BB7F87",
"y. c #DD6F81",
"u. c #C67A85",
"i. c #CC7A86",
"p. c #CF7C88",
"a. c #C57681",
"s. c #DE7082",
"d. c #D37E8A",
"f. c #D17B87",
"g. c #E06F81",
"h. c #E17184",
"j. c #E17C8C",
"k. c #A7A7A7",
"l. c #C3858D",
"z. c #DB838F",
"x. c #D6808C",
"c. c #C78790",
"v. c #C78890",
"b. c #CA8992",
"n. c #DE8591",
"m. c #D7929B",
"M. c #DD969F",
"N. c #E28392",
"B. c #E58996",
"V. c #E68D9A",
"C. c #E88B98",
"Z. c #E6919F",
"A. c #E9929E",
"S. c #DE9EA8",
"D. c #DD96A0",
"F. c #EA95A1",
"G. c #E498A4",
"H. c #EB9BA6",
"J. c #EB9EA9",
"K. c #EDA1AB",
"L. c #F0A3AD",
"P. c #EBA9B4",
"I. c #EDB1BB",
"U. c #F0BEC6",
"Y. c #F4C3CB",
"T. c #F5D2D7",
"R. c #FAE7EA",
"E. c #FDF7F8",
"W. c white",
"Q. c #FFFEFF",
"!. c #FEFDFD",
"~. c #FDF8F9",
"^. c #F2F3F3",
/* pixels */
"                                                                                                                                ",
"                                                                                                                                ",
"                                                                                                                                ",
"                                                                                                                                ",
"                                                                                                                                ",
"                                                                                                                                ",
"                                                                                                                                ",
"                                                                                                                                ",
"                                                                                                                                ",
"                                                                                                                                ",
"                                                                                                                                ",
"                                                                                                                                ",
"                                                                                                                                ",
"                                                                                                                                ",
"                                                          . . . . . . . . . . . . .                                             ",
"                                                    . . . X $ 4 i v C Z C b a 3 $ X . . .                                       ",
"                                                . . X ; b } 7.w.s.s.h.h.s.s.s.e.7.} b < X . .                                   ",
"                                            . . o w E 2.h.h.h.s.s.s.s.s.s.s.s.s.h.h.h.w.} a + . .                               ",
"                                        . . X 9 ' 4.6.q.s.s.s.s.s.s.s.s.s.s.s.s.s.s.s.s.h.s.X.i X . .                           ",
"                                      . . & T <.4.4.4.e.s.s.s.s.s.s.s.s.s.s.s.s.s.s.s.s.s.s.h.e./ = . .                         ",
"                                    . X 9 [ 4.4.4.4.5.e.s.s.s.s.s.s.s.s.s.s.s.s.s.s.s.s.s.s.s.h.s.&.e . .                       ",
"                                    E U ,.4.4.4.4.4.0.s.s.s.s.s.s.s.s.s.s.s.s.s.s.s.s.s.s.s.s.s.s.h.w.b X .                     ",
"                                . R 5.5.4.4.4.4.4.4.0.s.s.s.s.s.s.s.s.s.s.s.s.s.s.s.s.s.s.s.s.s.s.s.s.e.N X .                   ",
"                              . . m 5.4.4.4.4.4.4.4.q.s.s.s.s.s.s.s.s.s.s.s.s.s.s.s.s.s.s.s.s.s.s.s.s.h.e.i . .                 ",
"                            . . 9 ,.4.4.4.4.4.4.4.4.q.g.s.s.s.s.s.s.s.s.s.s.s.s.s.s.s.s.s.s.s.y.s.s.h.8.b @ . . . . .           ",
"                            . & [ 4.4.4.4.4.4.4.4.4.q.h.s.s.s.s.s.s.s.s.s.s.s.s.h.s.s.s.h.h.s.s.s.s.7.q . % l ) V : . .         ",
"                          . X Y 4.4.4.4.4.4.4.4.4.4.q.y.s.s.s.s.s.s.s.s.s.s.s.s.o.7.h.h.1.o.h.s.s.w.t . r >.B.C.F.b.k . .       ",
"        . . . .           . 9 <.4.4.4.4.4.4.4.4.4.4.0.s.s.s.s.s.s.s.s.s.s.s.s.&.* < ! W - ; 9.h.s.Z . 6 i.C.B.A.K.K.G.f . .     ",
"      . X 5 d O . .     . o ' 4.4.4.4.4.4.4.4.4.4.4.0.h.h.h.s.s.s.s.s.s.s.s.j.S.S . . . X v e.h.&.$ @ *.V.B.V.H.K.K.K.v.- .     ",
"    . O  .D.K.;.: . .   . 0 3.4.4.4.4.4.4.4.4.4.4.3.{ ! Z / w.h.s.s.s.s.y.j.T.W.^.k.I I ..w.s.s.C . n B.B.B.A.K.K.K.K.K.P . .   ",
"  . . G K.K.K.L.r.: . . X R 4.4.4.4.4.4.4.4.4.4.[ y + . . . a 9.h.s.s.s.y.P.W.W.W.W.W.W.Y.h.s.w.< X *.C.B.B.J.K.K.K.K.K.b.% .   ",
"  . % b.K.K.K.K.L.:.% . = ,.4.4.4.4.4.4.4.4.4.E & . - n K > . t 7.h.s.s.s.U.W.W.W.W.W.W.T.s.h.X.X 6 z.B.B.V.K.K.K.K.K.K.J.k .   ",
"  . k K.K.K.K.K.K.L.J . z 4.4.4.4.4.4.4.4.4.] & . D i.B.C.i.7 . t w.h.s.y.G.~.W.W.W.W.!.P.y.h.W . F C.B.B.F.K.K.K.K.K.K.K.| . . ",
". . +.L.K.K.K.K.K.J.M . E 4.4.4.4.4.4.4.4.3.w . D N.B.B.B.J.b.7 . a w.s.s.s.K.R.E.E.R.I.s.y.y.s . ..C.B.B.F.K.K.K.K.K.K.L.r.X . ",
". X r.L.K.K.K.K.K.D.2 + [ 4.4.4.4.4.4.4.4.[ o ; p.B.B.B.A.K.K.c.5 . b e.s.s.s.j.V.F.n.s.s.s.s.8 X *.C.B.B.H.K.K.K.K.K.K.K.b.% . ",
". @ u.J.K.K.K.K.K.b.# = <.4.4.4.4.4.4.4.4.U . V V.B.B.B.F.K.K.L.t.- X / h.s.s.s.y.y.y.s.s.s.s.j 3 p.B.B.B.J.K.K.K.K.K.K.K.m.: . ",
". : i.F.K.K.K.K.L.r.X 9 4.4.4.4.4.4.4.4.5.x . _ C.B.B.B.H.K.K.K.L.O.. s s.s.s.s.s.s.s.s.s.s.s.w.p.B.B.B.B.J.K.K.K.K.K.K.K.D.2 . ",
". > d.C.F.K.K.K.L.%.. u 4.4.4.4.4.4.4.4.5.x . _ C.B.B.B.J.K.K.K.L.| . v h.s.s.s.s.s.s.s.s.s.s.w.p.B.B.B.B.J.K.K.K.K.K.K.L.D.2 . ",
". > d.C.B.F.K.K.L.+.. z 5.4.4.4.4.4.4.4.5.Y . V B.B.B.B.F.K.K.K.r.% X ` h.s.s.s.s.s.s.s.s.s.y.s 3 i.B.B.B.J.K.K.K.K.K.K.K.m.: . ",
". - f.C.B.B.V.H.L.+.. x 5.4.4.4.4.4.4.4.4.] o - i.B.B.B.A.K.K.l.2 . N y.s.s.s.s.s.s.s.s.s.s.y.q X $.V.B.B.H.K.K.K.K.K.K.K.b.% . ",
". O =.B.B.B.B.B.A.@.. p 4.4.4.4.4.4.4.4.4.4.y . n n.C.B.B.H.b.5 . s e.s.s.s.s.s.s.y.s.s.s.s.h.v . ..C.B.B.F.K.K.K.K.K.K.K.:.X . ",
". . D V.B.B.B.B.C.*.X 1 3.4.4.4.4.4.4.4.4.4.[ & . l a.B.C.>.5 . i 9.s.s.s.s.s.s.s.s.s.s.s.s.h.W . D B.B.B.A.K.K.K.K.K.K.L.O.. . ",
"  . + _ n.C.C.B.C.d.> o ' 4.4.4.4.4.4.4.4.4.4.' = . % j F : . 0 ,.e.s.s.s.s.s.s.s.s.s.s.s.s.h.X.X 6 z.B.B.V.K.K.K.K.K.K.K.h .   ",
"    . X r ) $.>.u.i.V . 0 <.4.4.4.4.4.4.4.4.4.4.{ u @ . . X u ,.4.4.e.s.s.s.s.y.s.s.s.s.s.s.y.w.< X $.B.B.V.H.K.K.K.K.K.v.% .   ",
"      . . . X @ % * @ . X z <.4.4.4.4.4.4.4.4.4.5.4.{ E U E 3.4.4.4.6.q.h.s.g.h.s.s.s.s.s.s.h.h.Z . l B.B.B.A.K.K.K.K.K.L . .   ",
"          . . . . . . . . . 0 ' 3.4.4.4.5.5.5.5.4.4.5.6.6.6.4.4.5.5.4.4.0.g.h.h.h.h.h.h.h.h.h.h.7.* o #.C.B.B.H.K.K.L.l.% .     ",
"                          . . o , u z z z z z z z z z z z z z z x z z z z v b b b b b b b b b b b = . 5 u.C.B.A.K.L.m.d . .     ",
"                              . . . . . . . . X . . . . . . . . . . . . . . . . . . . . . . . . . . . . 6 >.B.C.A.b.k . .       ",
"                                                                                                      . . $ h H n - . .         ",
"                                                                                                        . . . . . . .           ",
"                                                                                                                                ",
"                                                                                                                                ",
"                                                                                                                                ",
"                                                                                                                                ",
"                                                                                                                                ",
"                                                                                                                                ",
"                                                                                                                                ",
"                                                                                                                                ",
"                                                                                                                                ",
"                                                                                                                                ",
"                                                                                                                                ",
"                                                                                                                                ",
"                                                                                                                                ",
"                                                                                                                                "
};
