/* XPM */
static char *_faa5b6805484cd88e159b4d49d680aclL4XTa04FyE9cen3[] = {
/* columns rows colors chars-per-pixel */
"64 64 219 2 ",
"   c #37220D",
".  c #3C2712",
"X  c #452C15",
"o  c #4A2F18",
"O  c #4B311A",
"+  c #51351C",
"@  c #593A1F",
"#  c #54391E",
"$  c #613C1F",
"%  c #5C3C21",
"&  c #563C21",
"*  c #623D22",
"=  c #683F23",
"-  c #5E4124",
";  c #59412B",
":  c #654325",
">  c #6A4326",
",  c #6A4728",
"<  c #6C4A2B",
"1  c #66482A",
"2  c #734327",
"3  c #764628",
"4  c #7A4629",
"5  c #744C2B",
"6  c #7C4B2B",
"7  c #75512E",
"8  c #7B522F",
"9  c #735431",
"0  c #7A5433",
"q  c #7A5D39",
"w  c #765A37",
"e  c #644E36",
"r  c #7C623D",
"t  c #6A5541",
"y  c #7A5F43",
"u  c #7D6645",
"i  c #834C2D",
"p  c #884F2F",
"a  c #84512F",
"s  c #88512F",
"d  c #894F30",
"f  c #855431",
"g  c #8C5432",
"h  c #865A34",
"j  c #8C5C34",
"k  c #885C3B",
"l  c #935635",
"z  c #935B35",
"x  c #995A37",
"c  c #9C5C39",
"v  c #965B38",
"b  c #A05E3A",
"n  c #8F6036",
"m  c #8D693E",
"M  c #89633C",
"N  c #936237",
"B  c #94643A",
"V  c #9B6339",
"C  c #946A3D",
"Z  c #9C6B3D",
"A  c #9A703F",
"S  c #A2643B",
"D  c #A46B3D",
"F  c #A96D3E",
"G  c #A4713F",
"H  c #AA713F",
"J  c #866B44",
"K  c #876947",
"L  c #936C46",
"P  c #8D734B",
"I  c #9D7242",
"U  c #9C7C4C",
"Y  c #95764A",
"T  c #856C55",
"R  c #8D7757",
"E  c #957B52",
"W  c #9C7E52",
"Q  c #987458",
"!  c #A37443",
"~  c #AC7341",
"^  c #AC7A45",
"/  c #A47B47",
"(  c #B37B44",
")  c #B27B45",
"_  c #A07F5B",
"`  c #8C7B69",
"'  c #927A60",
"]  c #9D8153",
"[  c #9B845C",
"{  c #9A845E",
"}  c #AD834D",
"|  c #A3804D",
" . c #B98246",
".. c #B5834A",
"X. c #BA854A",
"o. c #BE8A4D",
"O. c #A38453",
"+. c #A0865B",
"@. c #A48A5C",
"#. c #AC8A55",
"$. c #BB8D52",
"%. c #B28C56",
"&. c #BD9154",
"*. c #B2915B",
"=. c #BA955C",
"-. c #BE995D",
";. c #9A8562",
":. c #9D886C",
">. c #908375",
",. c #A38967",
"<. c #AD9262",
"1. c #AB946A",
"2. c #B29563",
"3. c #BC9B63",
"4. c #B3996A",
"5. c #BA9D69",
"6. c #B79667",
"7. c #A68D72",
"8. c #A89674",
"9. c #AA9776",
"0. c #B49C73",
"q. c #B39E7C",
"w. c #B39577",
"e. c #B18F6C",
"r. c #BEA16B",
"t. c #BCA374",
"y. c #B5A07E",
"u. c #BAA37D",
"i. c #C08F52",
"p. c #C29455",
"a. c #C2965A",
"s. c #C49A5C",
"d. c #C89F5E",
"f. c #C08D4F",
"g. c #C9A05F",
"h. c #C49E63",
"j. c #C5A165",
"k. c #CAA464",
"l. c #C5A46A",
"z. c #CAA66A",
"x. c #CAA86E",
"c. c #C1A473",
"v. c #CBAB73",
"b. c #C4AA7A",
"n. c #CAAE7B",
"m. c #C6A777",
"M. c #CDB07E",
"N. c #9D8F80",
"B. c #A89884",
"V. c #B79C85",
"C. c #A69C91",
"Z. c #B5A382",
"A. c #BBA584",
"S. c #BAA789",
"D. c #BDAA8D",
"F. c #BFA881",
"G. c #B8A896",
"H. c #ACA093",
"J. c #C4AC85",
"K. c #C9AF81",
"L. c #C1AC8C",
"P. c #C4A585",
"I. c #CDB283",
"U. c #CCB48C",
"Y. c #D0B78B",
"T. c #D1B688",
"R. c #C1AE93",
"E. c #C0AB9C",
"W. c #C4B195",
"Q. c #CAB492",
"!. c #CFB893",
"~. c #C5B39B",
"^. c #CAB69C",
"/. c #CCB99C",
"(. c #D2BA94",
"). c #D1BB99",
"_. c #D0AE84",
"`. c #C5B7A2",
"'. c #C9B7A2",
"]. c #CCBBA4",
"[. c #CDBDAB",
"{. c #C3B8AB",
"}. c #D2BEA3",
"|. c #C5BCB2",
" X c #CFC1AE",
".X c #D2C2AD",
"XX c #D7C5A9",
"oX c #CCC2B7",
"OX c #D2C4B3",
"+X c #D4CABD",
"@X c #D9CCBF",
"#X c #D7C8B8",
"$X c #E5D2BB",
"%X c #D3CCC3",
"&X c #DACEC2",
"*X c #DBD2C5",
"=X c #DCD4CB",
"-X c #D7D0C9",
";X c #DFDBD7",
":X c #E2DBCE",
">X c #E1D5C4",
",X c #E4DED4",
"<X c #E4DED7",
"1X c #E5E1DD",
"2X c #EAE4DD",
"3X c #EAE1D4",
"4X c #E9E5E2",
"5X c #ECE9E5",
"6X c #EEEEEE",
"7X c #E7E4E0",
"8X c #F1EEEC",
"9X c #F2F1EE",
"0X c #EFEFF0",
"qX c #F3F3F3",
"wX c #F8F6F5",
"eX c #F7F7F8",
"rX c #FCFCFC",
"tX c #F8F8F7",
"yX c #EFF0F0",
/* pixels */
"rXrXrX6X6XtXrXrXqX6XqXrXrXeX6X9XrXrXrX6X6XtXrXrXqX6XeXrXrXeX6X6XrXrXtX8X0XtXrXrXqX6XqXrXrXeX6X0XrXrXrX6X6XtXrXrXqX6XqXrXrXeX6X6X",
"rXrXtXqX6XtXrXrXqX6XeXrXrXeX6X6XrXrXtXqX0XtXrXrXqX6XeXrXrXqX6XqXrXrXtX6X0XtXrXrX8X6XqXrXrXeX6X9XrXrXtX6X6XtXrXrXqX6XeXrXrXeX6X6X",
"tXtXeXqXeXeXtXeXeXeXeXtXtXtXeXqXeXtXtXeXeXtX8XOXOX6XeXtXtXeXeXeXrXrXeXqXqXeXrXtXeXeXeXtXtXeXeXeXtXtXtXeXeXeXtXeXeXeXeXtXtXeXqXqX",
"8X6XeXrXrXeX6X8XrXrXtX6XqXtXrXrX8X6XeXrXrXeX'.Z ! 6.A.P.L.^.XXXX#X:X4XwXrXeX6XqXrXrXtX6X9XtXrXrXqX6XeXrXrXqX6XqXrXrXtX6X8XrXrXrX",
"0X6XqXrXrXeX6XqXrXrXtXyX6XtXrXrXqX6XqXrXrXwXJ.H ! I A I G Z V f M P [ ,.V.<XyXqXrXrXtXqX6XtXrXrX8X6XqXrXrXeX6XqXrXrXtX9X6XtXrXrX",
"tXtXeXeXqXtXrXtXeXeXtXtXtXeXeXtXtXrXeXqXqX#X$.G Z C C B Z V g > < J M J n Q <XeXqXqXtXtXtXeXeXeXtXtXeXqXeXtXrXtXeXeXeXtXtXeXeXeX",
"rXrXrX6X6XtXrXrX8X6XeXrXrXqX6X6XrXrXtXyX>Xs...N B Z I Z V S x z f L h 6 j : K &XqX6XeXrXrXeX6XyXrXrXrX6X6XtXrXrX9X6XeXrXrXqX6X6X",
"rXrXtXqXqXeXrXrXqXqXeXrXrXeX8XqXrXrXtX4XK.d.^ j C ! ! Z S S c V S V j a L 8 & Q <X9XeXrXrXeX8XeXrXrXtXqX8XeXrXrXqXyXeXrXrXeXyX8X",
"yX8XtXrXrXeX6XqXtXrXtXqX8XeXrXrXqX0XeX%X<.a.~ Z ~ ..X.~ S b b x S x N B I 9 & 2 w.rXeX0XyXeXrXrXqX8XeXrXrXqX6XqXtXrXtXqX8XeXrXrX",
"6X6XeXrXrXqX6X8XrXrXtX6X6XtXrXrX8X6XeX7.J =...} } Y / / ~ b x x c V d f h * % i k >XrX0X8XeXrXrX6X6XeXrXrXeX6X8XrXrXtX6X0XtXrXrX",
"eXqXeXtXtXtXeXeXtXtXtXeXqXeXrXtXtXeXqX` h ) ( G 0 # O & k ~ Z S b D l i 2 * > s f 7.qXqXeXtXtXeXeXqXeXtXtXtXeXeXtXtXtXeXqXeXrXtX",
"rXrXtX6X9XtXrXrXqX6XeXrXrXqX6XqXrXrX9X_ g s i 6 Z I L / l.I.v.o.~ D x g d i i s l k >XrXrXqXyXyXrXrXtX6XqXtXrXrXqX6XeXrXrXqX6XqX",
"rXrXtX9X6XtXrXrX9X6XeXrXrXeX6X8XrXrX&X0 : 3 i N &.v.v.n.!.#X}.z.X.~ b l x x z z j j 7.eXrXqX6X8XrXrXtX9X6XtXrXrX9X6XeXrXrXeX6X6X",
"eXeXeXtXtXeXeXeXeXtXeXeXeXtXtXeXeXoXu & 5 j D ) 3.Q.[.OX*X*XXXM.s.X.! V V V V V V z d V.qXeXrXeXeXeXeXtXtXeXeXeXeXtXeXeXeXtXtXtX",
"6X6XeXrXrXeX6X8XrXrXtX0X8XrXrXrX%Xe X + 9 U #.} 4.B.D.[.+X#X#X!.v.s...I Z V v D z l f k V.8XrXrX0X6XeXrXrXeX6X8XrXrXtX6XyXrXrXrX",
"0X9XeXrXrXeXyXeXrXrXeX0XqXtXrXrX`     . w [ +.O.E u E S.^./.!.I.m.3.} ! N l v x l g l j z ,.:XrXqX9XeXrXrXeXyXeXrXrXtX6XqXtXrXrX",
"rXrXtXqX8XtXrXrXqX0XeXrXrXeX6XqX>.    O u ;.;.P < # J 9././.Y.M.r.*.} Z j l l d d l z z z M Y [.tXrXtXqXyXeXrXrXqXqXeXrXrXeX8X9X",
"rXrXtX6X6XtXrXrX8X6XqXrXrXeX6XqX4X` ; & w J r 1 - w ] t.(.(.T.v.-.%.~ Z N v d i s l v z z B C Y OXrXtX6X6XrXrXrX8X6XeXrXrXeX6X6X",
"rXtXtXeXqXeXrXtXtXeXeXtXtXeXeXeXtXqX=X|.H.u w r P ,.y.!.(.(.T.d.o...F c x d i i g l V N B C m C Y @XtXeXqXeXrXeXeXeXeXtXtXeXqXqX",
"6X6XeXrXrXqX6XqXrXrXtX0X9XtXrXrXqX6XeXrXrXZ.] ] 1.S.W.!.(.Y.v.s...D x l g d i d x x N C C m B j g _ 1XrXrXqX6XyXrXrXeX6X6XrXrXrX",
"6X6XeXrXrXeX6X8XrXrXtX8X8XtXrXrXqX6XqXrXrX].q.Z.R.W.R.W.U.v.s.X.~ S l d l p p x c S C m L B n 6 6 s V.wXrXqX8XyXrXrXtXqX6XtXrXrX",
"tXtXeXqXeXtXtXeXeXqXtXtXtXqXeXeXtXtXtXeXqX XS.D.R.W.D.J.l.s.X.H c l l l d x x b S D Z C C B 8 3 6 3 j #XeXeXrXeXeXqXeXtXtXtXeXeX",
"rXrXtX6X6XrXrXrXyX6XeXrXrXeX6X6XrXrXeX6X6X XG.W.R.W.W.J.5.&. .H S b c b b S F H ~ ! I A Z f 4 4 6 3 i w.6XeXrXrXqX6XeXrXrXqX6X6X",
"rXrXeXqXqXtXrXrXqX8XeXrXrXeXqXqXrXrXtX6X6XOXW.~.W.W.].^.n.a.f. .( F F ( (  .X.o.../ I Z f 4 4 i 6 3 i Y <XrXrXrXqX6XeXrXrXqXqX8X",
"qXqXeXrXrXeX8XqXtXrXtXqXqXeXrXrXqX6XeXrXrX@X~.~.~.^.[.[.!.x.s.f.f.X.i.p.d.p.p.f.../ Z f 6 i i 6 2 3 g C &XqXyXqXtXrXtXqX8XtXrXrX",
"6X6XeXrXrXeX6XqXrXrXtX6X6XtXrXrXqX6XeXrXrX&X'.R.D.~.[.OX).M.g.s.s.d.k.z.k.s.f.f...Z g f d p i 2 > f n z w.qX6XyXrXrXtX6X6XtXrXrX",
"qXeXeXtXtXtXeXeXtXtXtXeXeXeXtXeXqXeXeXtXtX@X'.~.W.W.[.[.}.I.v.x.v.v.v.z.s.f.f. .~ V V l g p 3 = 6 g M j K <XeXeXtXtXtXeXqXeXrXtX",
"rXrXtX6XyXtXrXrXqX6XeXrXrXeX8XyXrXrXtX6X6X+X'.'.'.].].[.}.(.Y.I.M.v.z.s.f.f.f.( ( ~ D V g p = = g j v j 5 G.rXrXqX6XeXrXrXqX6XqX",
"rXrXtXqX6XtXrXrX8X6XqXrXrXeX6XqXrXrXtXyX6XOX[.[.].^.^.!.).).Y.n.z.g.s.s.p.p.f.p.p.X.D v g i = 3 g z z f = u 0XrX9X6XeXrXrXeX6X6X",
"eXeXtXtXtXeXqXeXeXtXeXqXeXtXrXtXeXeXtXtX9X].W.[.[.'.Q.U.Y.(.U.n.x.v.x.v.x.k.h.k.s.X.V g g 4 2 i g j g 3 % % {.eXeXtXeXeXeXtXtXtX",
"6X6XeXrXrXeX6X8XrXrXrX6X6XtXrXrX9X6XqXrXtX[.R.D.W.~./.(.Y.I.I.M.M.I.T.I._.n.n.v.s.~ z f i 4 4 s g g g > * * :.qXrXrXtX6XyXrXrXrX",
"9X6XqXrXrXtX6XqXrXrXtXqX8XeXrXrXqX6XeXrXtX[.R.A.Z.D.].].).Y.U.Y.I.M.M.T.T.M.n.k...V g g i 6 6 g g p i = = 3 Q 8XrXrXtX6XqXtXrXrX",
"rXrXeX8XqXtXrXrXqX8XtXrXrXeX9XqXrXrXtXyX5X Xu.y.q.S.~./.U.U.Y.T.M.M.M.T.I.M.z.&.V z j f 6 4 s g g i 6 > 3 a L 5XqX0XeXrXrXeX8XqX",
"rXrXtX6X6XrXrXrXyX6XeXrXrXqX6X9XrXrXrX6X6X X<.<.1.y.D.W.D.U.M.t.m.m.v.v.v.z.-.^ N j g s 4 i g j a 6 4 2 5 6 k <XyX0XeXrXrXeX6X6X",
"rXtXtXeXqXeXtXtXeXqXtXtXtXeXeXqXeXrXtXqXqX.X*.#.#.<.y.D.D.u.t.r.r.j.j.k.j.&. .V z g s 6 3 i f f a 6 6 2 5 0 K 1XeXqXeXtXtXtXqXqX",
"6XqXeXrXrXqX0X8XrXrXtX6X6XtXrXrX6X6XqXrXrXXXX.=.2.*.4.F.W.F.0.r.-.3.-.-.o.( D N g f i 6 3 8 g a a 8 7 6 0 5 Q 6XrXrXtX0XqXtXrXrX",
"6X0XeXrXrXeX6XqXrXrXtX8X6XtXrXrXqX6XqXrXrX].} s.j.r.4.4.y.F.u.t.5.3.=.$.~ S c x z g s 4 < 7 a s 8 5 7 , < > B.yXrXrXtX9X6XtXrXrX",
"tXtXeXeXeXtXtXtXeXeXeXtXtXeXeXeXtXeXtXeXeX/...&.3.l.r.4.4.4.q.y.5.5.=...H S x x l f 5 : < 7 f 0 5 < 9 < : , {.rXeXeXeXtXtXeXeXeX",
"rXrXtX6X6XtXrXrX6X6XeXrXrXeX6X9XrXrXtX6XyX`.*.d.r.b.t.<.*.@.<.4.1.5.=...H c c x g 6 @ % 5 8 7 < : < 9 8 5 R 8XrX9X6XeXrXrXqX6X6X",
"rXrXtX8XqXtXrXtXqXqXeXrXrXeX0XeXrXrXtXqXyX/.&.k.b.I.t.] m | ] ] @.O.=.i. .S c v g > + @ > > : : > 5 0 8 q +XrXrXqX6XeXrXrXeXyX8X",
"qXqXeXrXrXeX8XqXrXrXtXqXqXeXrXrXqXqXqXrXrX).p.x.M.D.t.m - r | ] U U O.&.( F S V g < + O @ % : , > 5 5 > 9.qX6XqXtXrXtXqX8XtXrXrX",
"6X6XeXrXrXeX6X6XrXrXrX6X6XtXrXrX6X6XtXrX9X!.a.l.M.K.@.r & - r ] O.U U s.X.H F V g 7 + X + : : , < < : T 7XeX6X8XrXrXtX6X6XtXrXrX",
"qXeXeXtXtXtXeXqXtXtXeXeXqXtXtXtXeX5X,X Xq.%.p.x.u.n.] w < - 9 ] [ ] ] -.o.( F V h 7 + O + % : : , > y -XrXeXeXeXtXtXtXeXqXeXrXtX",
"rXrXtX6XqXtXrXrX9X6XqXrXrXeX4X=X Xy.[ P Y U s.j.t.t.P < - # r P ;.[ O.-.o.( G C s 8 + X O @ : : * T -X0X0XeXrXrXqX0XeXrXrXqX6XqX",
"rXrXtX9X6XtXrXrXqX6XqXrXrX,XD.0.1.E J P 7.0.d.h.r.4.m < 1 u ;.:.8.8.1.-.o.( Z j s 7 + X O @ - @ ` 4XrX6X6XtXrXrX9X6XeXrXrXeX6X6X",
"eXeXeXtXtXeXeXtXtXrXeXeX7X;.[ u [ B.{.=XqXXXs.-.3.] r r ] :.8.8.8.q.t.3.o.) B f a 7 @ O o + ; C.5XeXtXtXtXeXeXeXeXtXeXeXeXtXtXtX",
"6X6XeXrXrXqX6X6XrXrXeX6X5X|.[.H.=X6XeXrXrX!.s.&.O.m r u ;.8.y.Z.Z.S.u.-.X.~ N 6 7 1 O . O u -XrXqX6XeXrXrXeX6X8XrXrXtX6XyXrXrXrX",
"6XqXeXrXrXeX8XqXrXrXeXyXyXrXrXrXqXyXtXrX3X6.p.&.Y w r ;.q.Z.D.D.D.S.y.=. .D N 6 7 - . t G.yXrXrX9X9XeXrXrXeXyXeXrXrXtX6XqXtXrXrX",
"rXrXtXqX9XtXrXrXeX8XeXrXrXeXqXqXwX2X*XW.<.&.a.} E r E S.W.L.L.F.q.1.[ o.( D j 6 9 w C.8XrXqX6XqXtXrXtXqXyXeXrXrXeX8XeXrXrXeX8X9X",
"rXrXtX6X6XtXrXrXyX6XeXrXrX5X*X`.y.+.E ] $.p.&.b.-X+X+X,X2X<X@X.XXXA.E o.( D f 6 >.<XeXrXrXeX6X8XrXrXtX6X6XtXrXrXyX6XeXrXrXeX6X6X",
"tXtXtXeXeXeXtXeXeXeXeXtX7XR ] @.@.E [ 3.s.=.l.3XtXeXtXtXtXeXeXeXeXeX>X$.H Z 6 T <XeXeXtXtXtXeXeXtXtXtXeXeXeXtXeXeXeXeXtXtXeXqXqX",
"8X6XeXrXrXeX6X8XrXrXtXyXoXJ O.2.<.1.l.x.l.M.=XqXrXrXtX0XqXtXrXrX6X6X2Xs.H Z 6 G.rXrXtX6XqXtXrXrXqX6XeXrXrXeX8XyXrXrXtX6X6XrXrXrX",
"0X0XqXrXrXeX6XqXrXrXtXqX4Xy.*.<.5.5.j.3.K.,XyXqXrXrXtXyX6XtXrXrXqX0X5Xh.( D f |.rXrXtXqX6XtXrXrX8X0XqXrXrXeX6XqXrXrXtXqX6XtXrXrX",
"tXtXeXeXqXtXrXtXeXqXeXtXrX1X0.2.=.%.*.0.,XtXtXtXeXeXtXtXtXeXqXeXtXtX3Xi.~ Z h oXtXeXeXtXtXeXeXeXtXtXeXqXeXtXrXtXeXqXeXtXtXtXeXeX",
"rXrXrX6X6XtXrXrXqX6XeXrXrXqXoXW.V.q./.,XyXtXrXrX9X6XqXrXrXeX6X0XrXrX$XX.~ C f E.qX6XeXrXrXeX6X8XrXrXrX6X6XtXrXrXqX6XeXrXrXqX6X6X",
"rXrXtXqXqXeXrXrXqX6XeXrXrXqXqXyXtXrXeXyXqXtXrXtXqX6XeXrXrXtX8XqXrXrXXXX.~ n 6 G.qX8XeXrXrXeXyXeXrXrXtXqX6XtXrXrXqX6XeXrXrXqXqX8X",
"qX6XtXrXrXqX6XqXtXrXtXqX8XtXrXrXqX8XeXrXrXeXqXqXrXrXtXqXqXtXrXrXeX8X_. .H z 0 -XrXrXtXqX6XtXrXrXqX6XtXrXrXqX6XqXtXrXtXqX8XtXrXrX",
"6X6XeXrXrXeX6X8XrXrXtX6X6XtXrXrX6X6XqXrXrXeX6X8XrXrXtX6X0XtXrXrXqX5XK.p.( N K 1XrXrXrXyX6XtXrXrX8X6XeXrXrXeX6X8XrXrXtX6X6XtXrXrX",
"qXqXeXtXtXtXeXeXtXtXtXeXeXeXrXtXtXeXeXtXtXtXeXeXtXrXtXqXeXeXtXtXeX>Xr.h.$.B ,.yXtXtXtXeXeXeXtXeXeXqXeXtXtXtXeXeXtXtXtXeXqXeXrXtX",
"rXrXtX6XqXtXrXrXqX6XeXrXrXqX6XqXrXrXtX6XyXtXrXrXqX6XeXrXrXqX6XqX9XK.3.s.$.V V.rXqX6XqXrXrXeX6X9XrXrXtX6XqXtXrXrXqX6XeXrXrXqX6XqX",
"rXrXtX8X6XtXrXrX8X6XeXrXrXqX6X9XrXrXtXqX6XtXrXrX6X8XeXrXrXeX6XqX+XU *...C 6.,XrXqX6XeXrXrXeX6XqXrXrXtX9X6XtXrXrX8X6XeXrXrXeX6X6X",
"eXeXtXtXtXeXeXeXtXtXeXeXeXeXtXtXqXeXtXtXtXeXeXeXeXtXeXeXeXtXtXtX;XG.7.W.oX6XqXeXtXrXeXqXeXtXtXtXeXeXeXtXtXeXeXeXtXtXeXeXeXtXtXtX",
"6X6XeXrXrXeX6XqXrXrXtX0XqXtXrXrX6X6XeXrXrXeX6XqXrXrXtX6X0XtXrXrXyXyXqXrXrXqX8XyXrXrXtX0X6XtXrXrXqX6XeXrXrXeX6XqXrXrXtX0XqXtXrXrX",
"6X6XeXrXrXqX6XqXrXrXtX6X6XrXrXrX9X6XeXrXrXqX6XqXrXrXtX6X6XrXrXrXyXyXeXrXrXqXyXyXrXrXtX0X8XtXrXrX6X6XeXrXrXqX6XqXrXrXtX6X6XrXrXrX"
};
