/* XPM */
static char *f04710f4b41e4823d52d8fa83ffec278SEq3oJa8P5I1l5a7[] = {
/* columns rows colors chars-per-pixel */
"64 64 254 2 ",
"   c #4E0F05",
".  c #550A02",
"X  c #660701",
"o  c #790A02",
"O  c #661707",
"+  c #7A1404",
"@  c #5F351B",
"#  c #78270C",
"$  c #712E0F",
"%  c #880601",
"&  c #840B02",
"*  c #8B0B01",
"=  c #990500",
"-  c #930D02",
";  c #9B0C02",
":  c #871705",
">  c #951404",
",  c #971605",
"<  c #A30400",
"1  c #AB0700",
"2  c #A30D01",
"3  c #AB0B02",
"4  c #B80300",
"5  c #B20B01",
"6  c #BC0C02",
"7  c #AC1303",
"8  c #A31B05",
"9  c #A51805",
"0  c #AB1B04",
"q  c #B41303",
"w  c #BB1403",
"e  c #B41C04",
"r  c #BC1B04",
"t  c #89280A",
"y  c #982508",
"u  c #8F330B",
"i  c #9A360D",
"p  c #8A3913",
"a  c #993911",
"s  c #A42309",
"d  c #AA2809",
"f  c #B52405",
"g  c #B72506",
"h  c #B42B0B",
"j  c #BD2B0A",
"k  c #AB320C",
"l  c #A8390D",
"z  c #B3330D",
"x  c #BC340B",
"c  c #B93A0A",
"v  c #A63912",
"b  c #B73B12",
"n  c #C50400",
"m  c #CB0400",
"M  c #C40C01",
"N  c #CC0D01",
"B  c #D90400",
"V  c #D40C01",
"C  c #DC0C01",
"Z  c #C41403",
"A  c #CA1303",
"S  c #C21C04",
"D  c #CB1B03",
"F  c #C51C08",
"G  c #D41403",
"H  c #DC1303",
"J  c #D31A04",
"K  c #DC1A03",
"L  c #E30500",
"P  c #EC0400",
"I  c #E40D01",
"U  c #ED0B01",
"Y  c #F30600",
"T  c #FE0600",
"R  c #F40D01",
"E  c #FE0C01",
"W  c #E51401",
"Q  c #EB1402",
"!  c #E21C03",
"~  c #ED1B03",
"^  c #E61C09",
"/  c #F41302",
"(  c #FE1302",
")  c #F31A03",
"_  c #FE1C03",
"`  c #FE1F08",
"'  c #C42405",
"]  c #CC2305",
"[  c #C62908",
"{  c #CC2C0A",
"}  c #D12204",
"|  c #D72707",
" . c #DD2304",
".. c #DB2B06",
"X. c #D42D09",
"o. c #DD2B09",
"O. c #C93808",
"+. c #D33505",
"@. c #DB340C",
"#. c #D63A09",
"$. c #DB3A0C",
"%. c #C82F11",
"&. c #C73B12",
"*. c #D33B12",
"=. c #DA3812",
"-. c #E32505",
";. c #EB2405",
":. c #E42A05",
">. c #E92A07",
",. c #F32305",
"<. c #FE2304",
"1. c #F42C06",
"2. c #FD2B05",
"3. c #F52709",
"4. c #FE2C0A",
"5. c #E93709",
"6. c #EC350B",
"7. c #E33B0A",
"8. c #FD3305",
"9. c #FA3A05",
"0. c #F4320A",
"q. c #FE340A",
"w. c #F43C0C",
"e. c #FE3C0C",
"r. c #E53711",
"t. c #F63D11",
"y. c #9A4614",
"u. c #BA4509",
"i. c #AA4917",
"p. c #B74615",
"a. c #A8581B",
"s. c #B95817",
"d. c #B0621F",
"f. c #985121",
"g. c #AB5C23",
"h. c #BA5922",
"j. c #A76629",
"k. c #BA6823",
"l. c #B87832",
"z. c #C8490C",
"x. c #D84804",
"c. c #D4420C",
"v. c #D8430C",
"b. c #D2490B",
"n. c #DB4B0C",
"m. c #C3580C",
"M. c #D9540C",
"N. c #C74815",
"B. c #DB4412",
"V. c #D64815",
"C. c #DC4A16",
"Z. c #C3541A",
"A. c #C85818",
"S. c #DA5215",
"D. c #D55917",
"F. c #DE5D1C",
"G. c #E4430D",
"H. c #E8460A",
"J. c #F6460B",
"K. c #FE430B",
"L. c #FF4B0D",
"P. c #E4560C",
"I. c #E8570C",
"U. c #F75409",
"Y. c #FE530B",
"T. c #E84A13",
"R. c #FE4613",
"E. c #F44C13",
"W. c #FF4A12",
"Q. c #E65613",
"!. c #EB5513",
"~. c #EB5C13",
"^. c #EC5B1B",
"/. c #F45414",
"(. c #FE5514",
"). c #FE5C14",
"_. c #F75818",
"`. c #DD620C",
"'. c #CA6518",
"]. c #D56413",
"[. c #D96719",
"{. c #CB721D",
"}. c #DA751A",
"|. c #E9630C",
" X c #FA670B",
".X c #FC760B",
"XX c #E66C14",
"oX c #EA6817",
"OX c #E4641C",
"+X c #F36411",
"@X c #FE6413",
"#X c #FD6C13",
"$X c #FE651C",
"%X c #F56A18",
"&X c #FD6C1C",
"*X c #EA731B",
"=X c #EB731C",
"-X c #F47316",
";X c #FE7415",
":X c #FC7B14",
">X c #F3731C",
",X c #FC731B",
"<X c #F37B1D",
"1X c #FD7B1B",
"2X c #C75C23",
"3X c #D35E21",
"4X c #FF5D23",
"5X c #CA6425",
"6X c #C66827",
"7X c #D66724",
"8X c #DB6B23",
"9X c #CA7828",
"0X c #D77628",
"qX c #C97B35",
"wX c #D57E33",
"eX c #E66421",
"rX c #E36B25",
"tX c #ED6B21",
"yX c #F56A24",
"uX c #FF6C24",
"iX c #E77727",
"pX c #F47223",
"aX c #FD7322",
"sX c #F17C23",
"dX c #F97B29",
"fX c #E57F32",
"gX c #FB7932",
"hX c #EF811B",
"jX c #FA871A",
"kX c #FE931D",
"lX c #D38831",
"zX c #DA8837",
"xX c #EA862B",
"cX c #FC8424",
"vX c #F28A24",
"bX c #FB8A24",
"nX c #F58729",
"mX c #FE842B",
"MX c #FB8C2D",
"NX c #FC9525",
"BX c #F4922C",
"VX c #FB952C",
"CX c #FC9C2B",
"ZX c #EB8934",
"AX c #F38C32",
"SX c #FA8A34",
"DX c #EA9539",
"FX c #F99737",
"GX c #FBAE30",
"HX c #FBA73A",
"JX c #EF9A43",
"KX c #F7A64A",
"LX c #F7B249",
"PX c #FEC552",
/* pixels */
"<.R.eXk.$ O Z E _ /.FXCXHX-XbXMXDXzX}.}.N.x D E E 3 ; 5 Z C _ Y ^ k O - R / 8 p N.,X<X}.Z.+X$XjX,XjXbX].k I ( w.rXxXvXjXDXa.h ~ ",
"( [ $   . ; P T 7 p j.0XlX}.FXDXlXd.i.s.l S _ ` | O : G Y R ^ m D C.a f ! e # p Z.gXSXvXoXbXaXMXpXVXkXXX&._ V y p.*XnXBXd.u D E ",
"E ;   X < V E P q y i.s.0X{.0Xs.i.i O.+.} ;.q.R.T.v { 4.<.' 8 Z <.uXpXG.o.r y i.5XgXSXjX.XCXcXvX-XkXBX*XC.K * + &.&XFX7Xt 0 Q T ",
"P < X 2 _ <._ Q Z S #.z.].'.].D.M.O.X.<.;.e.(.uXtXOXT.R.o.z y A q.mXFXdXC.{ %.V.tX>XmXFXNXHXiXxX<XCXxX[.N.' ; q 7.I.5Xp + C T P ",
"B < - r.(.uX(.>.! ! >.5.x.u.+.x.r.3.` 4.e.).@X&XaX<X8X/.G.c.s r X.eXAXmXrX*.=.T.yXsX,XbXjXlXs.[.oX<X{.s.l 7 3 C ,.,.o.; 1 m P B ",
"E Z h 2XaXKXbX!.:.( ~ -.g }  .! / I G r.@XdX%X^.^.8Xh.p.C.=.s > j ^.gXKXJX2X*.r.I.+X.XjX:X{.m.yXmXmXoXM.O.G P Y E ( _ r 6 < m B ",
"_ e.Z.7XpXLXLXDX7._ L U G Q Q C M 6 F E.,X>XS.c.5.N.u t [ ' * & S W.gXJXJX2X&.6.J.).:XkXjX}.|.;XmXsX<XiX$.) T T / _ 8.j d * n R ",
"e.Y.Q.P.+XpXVXZXB./ n L Q ;.X.S Z V } T.gX7Xp.c H.[ : & G W n ; ! Y.FXPXKX5X*.3.0.J.#XVXNX<X-XVXBXsX&XiXC.G P ( 1.J._.F.#.g Q <.",
"#X#X<X#X<XcXVXfX&.r o 7 z p.p.[ -./ _ e.p.$ t d ..Z - < I E U 4 Q L.mXHXZX3XB.3.4.r.4XfXJXwX5XD.D.~.sXrXb r ) q.Y.@X#X|.c.>.8.L.",
"hXXXoX-XjX<X*Xz.d .   # i.a.s.c ;.( E 9 O . : Z ~ W U ) <.<.,.q W <.T.rXwX7XN.%.r.%.=.C.D.s.p.B.!.Q.5Xa s } e.4XdXcX<XS...-.K.;X",
"{.]. XjXsXoXn.+.8 O t l z.m.u.c J U 4 . . * N R ( <.q.L.(.(.n.k } <.o.*.Z.N.p.x =.d e { &.c p.#.v.x x [ 0.R.uXSXFXxXD.h 7 S L.vX",
"'.[.,XHXDXs.h w ; d { V.).1X|.H.} 6 X   + A / ( <.K.&XcXdX,X|.z.#.6.J J ] [ b c N.s Z W H r r | { , F 4.(.aXnX0Xg.$ O X % r L.BX",
"9XiXtXtX2Xs 7 V H w.J. X1XNX&Xn.f - X + F ) _ _ +.n.oXSXFXKXvX=X|.x.g 7 Z A f f [ w W E C N W ( A < ~ q._.7Xi.u : o = = 5 } Y.hX",
"A.s.i.z h 0 M Q <.L.,X:XkXCXZXS.f ; ; A ~ _ E Z k z.oXXX}.0X9X{.m.z.g w M M 7 e D ^ _ ~ Z N E E N 5 W X.x v y e N n 1 n L  .+.].",
"t y e V G 2 6 _ q.uXFXNXGX=X'.k e q C / / Q m 5 d O.!.#X+X}.s.a.u.x.[ K U I G ) ,.<.q.6.%.X.) L = & 2 r r J W ) <.<.G I T A , t ",
"G W ) ( R 3 V ( -.S.xXZXzXi.l ' K ! 4.4.-.J G L K X./.,X;X.X|.|.M.H.+.~ / _ 8.8.e.w.)._.Q.$.,.H ; 2 Z G U ( <.e.(.^.b G Y 4 & 2 ",
"2.q.R.q.{ 9 M M > y i.i.p t Z ) 1.w.R.t.w.1.2._ W S 7.%XmXVX&XpXOXB...W ) 8.Y.).>XS.|.~.+XG.;.N 3 Z o.<.<._ 8.).-XxXy.: 6 L 3 A ",
"W.uXaXN.O.+.,.Q 5 7 r 0 , M / _ 5.!.yX^.G.w.W.w.| D ;.W.yXsXrXF.!.0.J A D 9.1XjX<X].I.).|.$.D w G 2.K.#.[ ' #.M.*X6Xp 0 V ( :.0.",
"JXSXtXZ.n.U.L.;.6 V U R I R ( <.=.T.4XT.O.H./.D.u.@.<.4.X.k z =.r.s & & 0 6.uXsXvXiX|.P.G.{ > ; G q.^.N.x e [ V.b.p.y J ( <.T.8X",
"tXOX~./.U.#X$X#.7 V E E / _ <.4.J.W.4X^.B.G./.`.u.c.| Z X   : d b $ # , D ;.E.^.OX].M.$.D 9 8 e 3.4.B.k ' K ;.>.7.@.! ( _ e.~.8X",
"vX,X&X&X,X1XnXN.8 A E / D ;.8.e.^.4XgXyXD.J.(.%X|.x.+.w X o D J.eX6Xv [ -.` 4.6.*.*.] 2 - 0 ..$.0.0.o.X.:.~ ) 3.3.` H ( ;.G.OXiX",
"M.+X-XOX[.OXoXc e G Q V r :.e.K.J./.gXfXrX(.aXnX0Xz.#.! 6 J 9. X>X].A.v.3.( E Z ; 2 = o - S 5.E.$.;.) ) ) ~ ) <.^ Z 3 M s y.'.{.",
"XX#X,XiX8XD.z.*.o._ / C V ,.e.).uXuXmXfX6X^.aXiX5XG.$.<.E 4.).bXnX=XsXM.3.( m X o 6 w 2 q ! >.7.1._ ( ( ~ ^ ,.0.j > , 7 y i c.[.",
" X,XdXFXXXN.{ -.o.] A n R _ L.gXZXZXAX0Xh.N.eX0X7XoX!.-.6 o.eXZX}.`.XXB.3.C < + 9 o.=.[ W ( <.2.q.| g g g j | [ d g <.<.s k U.>X",
"dXsXnXKX6X&.>.` q.J M m E _ e.6Xl.qXfXZX2XA.T.F.P.~.z o & S N.Z.A.M.b.] W V e z B./.~.O.A H <.5.b u v z.B.&.j f ^ t.(.3Xa z J.rX",
"N.N.V.Z.b %.q.t.R.%.6 C E E r @ @ f.8XJXlX'.S.P.n...* o 4 Q 2.@.O.h e G ( 2.C.2XA.M.P.+.g e j O.p.i.n.+XaXF.x ] 4.4XfXj.$ , 0.c.",
", , g ] %.=.E.4XR.F 3 B I / 6 + : x ~.sX6Xp.z.O.[ q 3 G ( ` ) G Z 6 C E 2.W.0Xl.Z.M.G.X.d k c H.I.~.+X1XmX5Xl :.e.gXzXj.v ' _ 6 ",
"* 9 K ~ o.%.p.p.s > & 6 ~ 2.q.X.' :.w.C.a h ' D S K e.R.R.[ + * < 4 E 2.@XMXqXa.A.v.0.8.c.b.H.U.@X;X;X1XmXoXc.6.R.0XqXk.N.5.( n ",
"] 3.q.6.&.*.k 8 : > > 0 5.Y.$X^.%.:.<.K 7 w V G >.K.&XmXDXa.O * 4 L <.Y.CXLXl.y.c 7.9.E.].M.Y. XjXhX}.XXMXSXeXB.J.].8X0XF.J.! A ",
"L.e.(.!.C.@.g 7 r 3.K.V.T.aXFXDXi.@.2.-.5 4 m K 9.:XHXGXFXk.t w L ( K.:XFXlXg.u.O.1.K.+XXXP. X.XjXoX].P.,XpXF.b #.P.,X=Xp.$.r.4.",
"kXH.t.B.=.1.K 7 o.e.$XiXD.eX[.0Xk.).@Xn.> = B 2.).NXVXCXDXwXi.H E <.).:XhXd.y.g -.8.@XhXvX*X X X.X,X-X+X1X=XA.j ..G.P.].i %.W.$X",
"GXG * ; ~ _ J y T.uXMXJXh.F.(.,X*XjXhXs.# = C 9.cXGXVXBXJX9Xl K ( e.cXGX0Xi f W _ e.;XjX<XXX:XcXVXFXBX*X`.u.g K ( <...h y f o.FX",
"I v X * R <.d $ Z.aXaX}.m.+X@XdX<XjXjX].k V ( w.rXzXvXjXZXa.g Q <.W.tXk.$ O M E _ /.FXCXHX-XkXMXAXzX7X0XN.j ] ( E 1 ; 3 w H ( R ",
"G F.a f ^ e # p Z.mXMXvXoXbXaXMXpXNXvXXX#._ V y z.XXMXBXk.u D E ( [ $     ; L T 0 p j.0XlX}.FXDXzXj.s.p.l F _ _ | O - V E R ! m ",
"<.uXpXT.o.r y i.5XdXmXcX;XCXcXbX,XkXBX*XC. .* : z.uXFX{.# 0 R T E ; . X 1 V T P q y i.s.0X{.0Xd.y.l O.O.} ;.q.R.T.v %.4.` ' 8 Z ",
"q.mXFXpXC.{ { C.tXtXbXFXNXHX0XxX=XCXBX[.N.S ; q @.P.5Xp : V T Y P = X 3 _ _ <.U Z S +.x.].'.].M.M.O.X.<.3.t.(.uXyXOXM.R.o.z y Z ",
"X.rXxXSXrX*.=.T.tXiX1XcXhXlXm.[.oX<X9Xs.v 7 3 V ,.>. .; 1 m P B B < : >.(.uX(.:.K ! >.5.+.u.x.#.7.1.` <.e.).$X;X,X<X8XT.G.c.d r ",
"[ ^.gXKXJX2X*.r.!.+X XkXjX{.s.&XdXmXXXM.[ G Y Y E ( ` Z 6 < n B T Z h 3XdXHXbX^.;._ ~ -.g ] K ;./ C G r.@XdXoX~.^.rXh.p.C.=.s , ",
"S W.gXFXJX2X&.>.J.@X:XkXjX}.+X,XnXcX,X*X7.) T E / _ 4.x s * n R ` t.Z.7XgXLXLXDX7._ L P G ~ Q V M 6 F E.,X>XS.#.5.N.p y j ' - & ",
"! Y.FXPXLX7X*.,.0.E.@XNXNXhX-XVXAXsX&XiXC.G P / 2.J._.F.#.g ~ <.e.(.P.P.oX,XbXZX*.) n L ~ ;.X.r A V } /.gX7Xi.&.H.%.+ & G W n = ",
"Q K.mXLXZX'.=.3.4.r._.gXDXwX5XS.D.+XsX8Xb r / q.Y.@X+X|.n.:.2.Y.#X X<X@X<XcXVXxX&.r & 7 z p.u.[ ! / ` e.p.$ # h -.Z * < L ( R 4 ",
"W <.T.rXwX7XZ.%.=.%.*.C.3XZ.p.B.Q.Q.7Xa s { e.uXdXcX<XS.| ;.L.;XjXXXXX-XjX<X=XN.s     # i.a.s.u.;.( E ; O O - Z ~ W / ) <.<.,.q ",
"} <.-.#.Z.N.b %.=.d g { &.c p.#.c.c x [ 1.R.uXSXKXiXD.h 7 S L.nX{.D.#XjX<XoXn.+.9 O t v z.A.u.c } U 4 . . & N R ( <.8.L._.Y.n.h ",
"#.5.} J J [ p.b &.d Z W H e g | [ , D 4.(.aXdX0Xg.$ O X % r L.BX{.[.;XHXDXs.h q ; s { V.).1X|.H.| 6 X   + Z / E <.L.&XdXdX;X`.z.",
"P.x.g 3 M Z g f [ e W E C N W E A < Q q./.7Xi.u : + % = 5 } U.vX9XiXpXtXZ.y 7 V H 0.J. X1XNX&Xn.g - X + F ) ` ` X.n.%XAXFXFXvX=X",
"m.z.g w N M 7 q J ! ( ) Z N E E V 3 ^ X.x v y e A n 4 n I K O.].Z.s.v z h 0 M R <.Y.&X.XkXCXZXS.f ; ; A ~ _ R A k N.|.XX=XlX9X{.",
"u.z.+.K Q I G ~ ,.<.q.w.%.] ) I = & 2 r S J H ) <.<.D L T M , y t y q G H 2 Z _ q.uXKXNXCX<X'.k f 5 I / / / M 6 s &.P.#X+X}.d.s.",
"M.H.+.) / _ 8.8.e.J._./.~.$.,.H = 2 Z V Q ( _ e.(.^.&.G Y 4 & < G W ) ( R 3 N ( :.S.xXAXzXy.v ' K ! <.1.-.D V I W #./.;X;X.XM.|.",
"XXv.o.W ) q.).).>XC.|.~.+XG.>.V 5 Z o.<._ <.9.).>XlXy.: M L 3 A 4.q.R.e.] 9 A M , t i.i.p : Z ) 1.w.W.J.w.1.<._ W F 5.%XmXBX>X>X",
"!.0.J N D e.;XjX<X].I. X~.7.Z w G 4.K.#.] ' +.M.=X7Xp 0 V ( -.w.W.uXuXN.c X.,.Q 5 7 ' 0 , N / _ 6.!.tX^.G.w.L.J.| D ;.R.yXdXrXOX",
"r.s : & 9 6.aXsXvXiX+XI.G.] , > G q.^.z.x f [ b.M.i.s D ( <.T.7XJXSXtXA.n.U.L.>.M V U R W R ( <.=.T._.T.#.G.).D.c X.<.4.X.k z =.",
"z $ # , J >.E.T.[.[.b.#.] 0 , r ,.q.*.b ' J ;.>.7.:.K ( _ q.oX[.tXtXP.U.U..X$X=.7 V E E / _ <.2.E.R.4X_.n.7./.].m.z.| Z X   & h ",
"eX6Xi.' ;.` 4.6.*.*.] 3 - 0 ..$.0.0.o.X.-.) ) <.3.` C ( 3.B.OXfXsX,X&X%XpX1XnXp.8 M ( R D ;.8.e.^.4XgXyXD.R.(.@X|.x.+.w X o D J.",
"-X'.'.#.3._ E M ; 2 = o - S 9.T.$.;.Q ) ) ~ ) <.^ Z 3 M 8 y.'.7X`.+X>XrX8XoX|.c e G ) V r -.e.K.E.E.gXfX8XE.aXxX0Xz.#.-.6 G w. X",
"nX*X>XM.1.E m X o 6 r 2 q ! >.5.0.` ` ( ~ K ,.0.j > > 7 y v c.].XX#X&XiX7XD.V.*.o.) / C V ,.K.).uXuXmXfX6X^.dXfX2XG.$.<./ 4.).bX",
"}.].oXc.,.C 2 + 9 o.$.' W ( <.8.4.| r g g j X.[ d r 3.4.s k /.-X X,XdXVXXXN.{ -.o.] A m R _ R.mXZXZXAX0Xh.N.^.0X7XoXT.;.w :.eXZX",
"A.I.b.] W H e k C.!.I.O.G H _ 7.b u l N.T.O.j h o.q.).3Xa h H.*XdXdXSXJX6X&.;.3.4.} Z m R ` q.6Xl.qXxXxX2XA.Q.M.P.~.z + % F N.Z.",
"O.d e G E 4.C.2XZ.Q.P.+.g e g z.p.i.z.+XaX[.z ] 2.4XZXj.$ , 0.c.z.p.V.2Xi.X.q.e.R.[ 6 C E E w @ @ f.0XFXwXD.Q.P.n.X.- o 4 W 4.@.",
"Z 6 C E 2.(.9Xk.Z.C.7.X.d k c H.U.~. X1XmX2Xl >.e.gXzXj.v ' ) Z > , j { j r._.4XR.' 1 V I / w + # j Q.<Xk.s.z.O.' q 3 N ( _ Q G ",
"1 4 E 2.@XBXlXa.s.B.0.8.c.c.G.Y.#X;X,X:XcXtX#.6.R.8XqXk.z.5.( n * 9 K ) o.%.p.b s > & 6 ~ <.q.X.] -.w.C.a h ' S S -.e.R.R.[ + * ",
"4 L <.U.CXLXl.i.c @.e./.D.M.Y. XjX<X}.XXmXSXrXG.H.[.8XiXF.J.^ V D 3.0.t.&.*.k 9 : > > 0 5.Y.&X^.x ;.<.K 3 M H G >.K.uXMXFXf.O - ",
"L E K.;XFXlXa.i.O.1.L.+XXXM. X.XjXXX'.H.,XaX[.c #.P.%X=Xp.=.r.1.L.e.(.T.C.=.g 7 Z ,.e.V.T.aXSXDXi.=.4.^ 5 4 n K 9.1XCXGXFXk.u q ",
"( <.).:XjXd.i h -.8.).bXvXXX.X X.X;X,X~.<X*XA.x ..G.~.D.i j W.$XjXJ.t.B.=.3.H 7 -.L.%XiXD.eXOX0Xk.+X@XB.> = V 2.).NXCXCXDX0Xi.H ",
"( e.cXHX0Xi f Q _ e..XjXhXXX:XjXFXVXMXsX[.c g K ( <...z y f @.VXGXG - , ^ ` J y G.aXMXJXh.F./.,X=XjXjXs.# = C 9.cXGXVXBXDXqXl K "
};
